<svg width="270" height="270" viewBox="0 0 270 270" fill="none" xmlns="http://www.w3.org/2000/svg" xmlns:xlink="http://www.w3.org/1999/xlink">
<g clip-path="url(#clip0_8_2)">
<path d="M0 0H270V270H0V0Z" fill="url(#paint0_linear_8_2)"/>
<path d="M40.843 232.162C39.187 232.162 37.9 231.712 36.982 230.812C36.082 229.894 35.632 228.607 35.632 226.951V220.471H33.094V217.312H33.364C34.084 217.312 34.642 217.123 35.038 216.745C35.434 216.367 35.632 215.818 35.632 215.098V213.964H39.169V217.312H42.544V220.471H39.169V226.762C39.169 227.248 39.25 227.662 39.412 228.004C39.592 228.346 39.862 228.607 40.222 228.787C40.6 228.967 41.077 229.057 41.653 229.057C41.779 229.057 41.923 229.048 42.085 229.03C42.265 229.012 42.436 228.994 42.598 228.976V232C42.346 232.036 42.058 232.072 41.734 232.108C41.41 232.144 41.113 232.162 40.843 232.162ZM49.7026 232.324C48.6766 232.324 47.7856 232.153 47.0296 231.811C46.2736 231.469 45.6886 230.983 45.2746 230.353C44.8606 229.705 44.6536 228.958 44.6536 228.112C44.6536 227.302 44.8336 226.582 45.1936 225.952C45.5536 225.304 46.1116 224.764 46.8676 224.332C47.6236 223.9 48.5776 223.594 49.7296 223.414L54.5356 222.631V225.331L50.4046 226.033C49.7026 226.159 49.1806 226.384 48.8386 226.708C48.4966 227.032 48.3256 227.455 48.3256 227.977C48.3256 228.481 48.5146 228.886 48.8926 229.192C49.2886 229.48 49.7746 229.624 50.3506 229.624C51.0886 229.624 51.7366 229.471 52.2946 229.165C52.8706 228.841 53.3116 228.4 53.6176 227.842C53.9416 227.284 54.1036 226.672 54.1036 226.006V222.226C54.1036 221.596 53.8516 221.074 53.3476 220.66C52.8616 220.228 52.2136 220.012 51.4036 220.012C50.6476 220.012 49.9726 220.219 49.3786 220.633C48.8026 221.029 48.3796 221.56 48.1096 222.226L45.2206 220.822C45.5086 220.048 45.9586 219.382 46.5706 218.824C47.2006 218.248 47.9386 217.798 48.7846 217.474C49.6306 217.15 50.5486 216.988 51.5386 216.988C52.7446 216.988 53.8066 217.213 54.7246 217.663C55.6426 218.095 56.3536 218.707 56.8576 219.499C57.3796 220.273 57.6406 221.182 57.6406 222.226V232H54.2926V229.489L55.0486 229.435C54.6706 230.065 54.2206 230.596 53.6986 231.028C53.1766 231.442 52.5826 231.766 51.9166 232C51.2506 232.216 50.5126 232.324 49.7026 232.324ZM60.9097 232V217.312H64.2307V220.201L63.9607 219.688C64.3027 218.806 64.8607 218.14 65.6347 217.69C66.4267 217.222 67.3447 216.988 68.3887 216.988C69.4687 216.988 70.4227 217.222 71.2507 217.69C72.0967 218.158 72.7537 218.815 73.2217 219.661C73.6897 220.489 73.9237 221.452 73.9237 222.55V232H70.3867V223.387C70.3867 222.739 70.2607 222.181 70.0087 221.713C69.7567 221.245 69.4057 220.885 68.9557 220.633C68.5237 220.363 68.0107 220.228 67.4167 220.228C66.8407 220.228 66.3277 220.363 65.8777 220.633C65.4277 220.885 65.0767 221.245 64.8247 221.713C64.5727 222.181 64.4467 222.739 64.4467 223.387V232H60.9097ZM83.6106 232.162C81.9546 232.162 80.6676 231.712 79.7496 230.812C78.8496 229.894 78.3996 228.607 78.3996 226.951V220.471H75.8616V217.312H76.1316C76.8516 217.312 77.4096 217.123 77.8056 216.745C78.2016 216.367 78.3996 215.818 78.3996 215.098V213.964H81.9366V217.312H85.3116V220.471H81.9366V226.762C81.9366 227.248 82.0176 227.662 82.1796 228.004C82.3596 228.346 82.6296 228.607 82.9896 228.787C83.3676 228.967 83.8446 229.057 84.4206 229.057C84.5466 229.057 84.6906 229.048 84.8526 229.03C85.0326 229.012 85.2036 228.994 85.3656 228.976V232C85.1136 232.036 84.8256 232.072 84.5016 232.108C84.1776 232.144 83.8806 232.162 83.6106 232.162ZM95.1181 232.324C93.6781 232.324 92.3641 231.991 91.1761 231.325C90.0061 230.659 89.0701 229.75 88.3681 228.598C87.6841 227.446 87.3421 226.132 87.3421 224.656C87.3421 223.18 87.6841 221.866 88.3681 220.714C89.0701 219.562 90.0061 218.653 91.1761 217.987C92.3461 217.321 93.6601 216.988 95.1181 216.988C96.5581 216.988 97.8631 217.321 99.0331 217.987C100.203 218.653 101.13 219.562 101.814 220.714C102.516 221.848 102.867 223.162 102.867 224.656C102.867 226.132 102.516 227.446 101.814 228.598C101.112 229.75 100.176 230.659 99.0061 231.325C97.8361 231.991 96.5401 232.324 95.1181 232.324ZM95.1181 229.084C95.9101 229.084 96.6031 228.895 97.1971 228.517C97.8091 228.139 98.2861 227.617 98.6281 226.951C98.9881 226.267 99.1681 225.502 99.1681 224.656C99.1681 223.792 98.9881 223.036 98.6281 222.388C98.2861 221.722 97.8091 221.2 97.1971 220.822C96.6031 220.426 95.9101 220.228 95.1181 220.228C94.3081 220.228 93.5971 220.426 92.9851 220.822C92.3731 221.2 91.8871 221.722 91.5271 222.388C91.1851 223.036 91.0141 223.792 91.0141 224.656C91.0141 225.502 91.1851 226.267 91.5271 226.951C91.8871 227.617 92.3731 228.139 92.9851 228.517C93.5971 228.895 94.3081 229.084 95.1181 229.084ZM112.38 232.324C110.958 232.324 109.689 231.991 108.573 231.325C107.457 230.641 106.575 229.714 105.927 228.544C105.279 227.374 104.955 226.078 104.955 224.656C104.955 223.216 105.279 221.92 105.927 220.768C106.575 219.616 107.457 218.698 108.573 218.014C109.707 217.33 110.967 216.988 112.353 216.988C113.469 216.988 114.459 217.213 115.323 217.663C116.205 218.095 116.898 218.707 117.402 219.499L116.862 220.228V211.561H120.399V232H117.051V229.165L117.429 229.867C116.925 230.659 116.223 231.271 115.323 231.703C114.423 232.117 113.442 232.324 112.38 232.324ZM112.758 229.084C113.568 229.084 114.279 228.895 114.891 228.517C115.503 228.139 115.98 227.617 116.322 226.951C116.682 226.285 116.862 225.52 116.862 224.656C116.862 223.81 116.682 223.054 116.322 222.388C115.98 221.704 115.503 221.173 114.891 220.795C114.279 220.417 113.568 220.228 112.758 220.228C111.966 220.228 111.255 220.426 110.625 220.822C109.995 221.2 109.5 221.722 109.14 222.388C108.798 223.036 108.627 223.792 108.627 224.656C108.627 225.52 108.798 226.285 109.14 226.951C109.5 227.617 109.995 228.139 110.625 228.517C111.255 228.895 111.966 229.084 112.758 229.084ZM130.656 232.324C129.144 232.324 127.821 231.982 126.687 231.298C125.553 230.614 124.671 229.687 124.041 228.517C123.411 227.347 123.096 226.051 123.096 224.629C123.096 223.153 123.411 221.848 124.041 220.714C124.689 219.562 125.562 218.653 126.66 217.987C127.776 217.321 129.018 216.988 130.386 216.988C131.538 216.988 132.546 217.177 133.41 217.555C134.292 217.933 135.039 218.455 135.651 219.121C136.263 219.787 136.731 220.552 137.055 221.416C137.379 222.262 137.541 223.18 137.541 224.17C137.541 224.422 137.523 224.683 137.487 224.953C137.469 225.223 137.424 225.457 137.352 225.655H126.012V222.955H135.354L133.68 224.224C133.842 223.396 133.797 222.658 133.545 222.01C133.311 221.362 132.915 220.849 132.357 220.471C131.817 220.093 131.16 219.904 130.386 219.904C129.648 219.904 128.991 220.093 128.415 220.471C127.839 220.831 127.398 221.371 127.092 222.091C126.804 222.793 126.696 223.648 126.768 224.656C126.696 225.556 126.813 226.357 127.119 227.059C127.443 227.743 127.911 228.274 128.523 228.652C129.153 229.03 129.873 229.219 130.683 229.219C131.493 229.219 132.177 229.048 132.735 228.706C133.311 228.364 133.761 227.905 134.085 227.329L136.947 228.733C136.659 229.435 136.209 230.056 135.597 230.596C134.985 231.136 134.256 231.559 133.41 231.865C132.582 232.171 131.664 232.324 130.656 232.324ZM141.923 232V220.471H139.331V217.312H141.923V216.826C141.923 215.71 142.148 214.765 142.598 213.991C143.066 213.199 143.714 212.596 144.542 212.182C145.37 211.768 146.351 211.561 147.485 211.561C147.701 211.561 147.935 211.579 148.187 211.615C148.457 211.633 148.682 211.66 148.862 211.696V214.747C148.682 214.711 148.511 214.693 148.349 214.693C148.205 214.675 148.07 214.666 147.944 214.666C147.152 214.666 146.54 214.846 146.108 215.206C145.676 215.548 145.46 216.088 145.46 216.826V217.312H151.886V220.471H145.46V232H141.923ZM150.563 232V217.312H154.127V232H150.563ZM158.745 232V228.22H162.309V232H158.745ZM167.275 232V211.561H170.812V232H167.275ZM175.86 237.967C175.464 237.967 175.077 237.931 174.699 237.859C174.321 237.805 173.979 237.706 173.673 237.562V234.592C173.907 234.646 174.186 234.7 174.51 234.754C174.852 234.808 175.167 234.835 175.455 234.835C176.265 234.835 176.85 234.646 177.21 234.268C177.588 233.89 177.921 233.395 178.209 232.783L179.181 230.515L179.127 233.485L172.728 217.312H176.535L181.017 229.246H179.667L184.122 217.312H187.956L181.557 233.485C181.179 234.439 180.72 235.249 180.18 235.915C179.64 236.581 179.01 237.085 178.29 237.427C177.588 237.787 176.778 237.967 175.86 237.967ZM188.575 232L193.705 224.629L188.548 217.312H192.706L196.729 223.252H194.866L198.889 217.312H203.02L197.89 224.629L202.993 232H198.862L194.893 226.087H196.702L192.733 232H188.575Z" fill="white"/>
<path d="M16 57.5C16 35.1325 34.1325 17 56.5 17V17C78.8675 17 97 35.1325 97 57.5V57.5C97 79.8675 78.8675 98 56.5 98V98C34.1325 98 16 79.8675 16 57.5V57.5Z" fill="url(#pattern0)"/>
</g>
<defs>
<pattern id="pattern0" patternContentUnits="objectBoundingBox" width="1" height="1">
<use xlink:href="#image0_8_2" transform="scale(0.0004)"/>
</pattern>
<linearGradient id="paint0_linear_8_2" x1="0" y1="0" x2="270" y2="270" gradientUnits="userSpaceOnUse">
<stop stop-color="#F3BA2F"/>
<stop offset="1" stop-color="#FE005B" stop-opacity="0.99"/>
</linearGradient>
<clipPath id="clip0_8_2">
<rect width="270" height="270" fill="white"/>
</clipPath>
</defs>
</svg>
